# xmcd CD database file
#
# Track frame offsets:
#	150
#	12951
#	24052
#	45025
#	62254
#	94176
#	105247
#	115968
#	127267
#	141004
#	163303
#	178042
#	198606
#	218980
#	239376
#	252094
#	275901
#	285390
#	305076
#	317049
#
# Disc length: 4364 seconds
#
# Revision: 0
# Processed by: cddbd v1.5.2PL0 Copyright (c) Steve Scherf et al.
# Submitted via: CDex 1.83
#
DISCID=1b110a14
DTITLE=Toots Thielemans - Harmonica Celebration CD1
DYEAR=2016
DGENRE=Jazz
TTITLE0=Bluesette
TTITLE1=I Put All The Eggs In One Basket
TTITLE2=Don't Be That Way
TTITLE3=18th Century Ballroom
TTITLE4=Soul Station
TTITLE5=Let A Song Go Out Of My Heart
TTITLE6=On The Alamo
TTITLE7=Don't Blame Me
TTITLE8=Sophisticated Lady
TTITLE9=Fundamental Frequency
TTITLE10=Stars Fell On Alabama
TTITLE11=Struttin' With Some Barbecue
TTITLE12=Diga Diga Doo
TTITLE13=Imagination
TTITLE14=So Rare
TTITLE15=Isn't It Romantic
TTITLE16=Skylark
TTITLE17=Sonny Boy
TTITLE18=Homesick, That's All
TTITLE19=Cocktails For Two
EXTD=YEAR: 2016
EXTT0=
EXTT1=
EXTT2=
EXTT3=
EXTT4=
EXTT5=
EXTT6=
EXTT7=
EXTT8=
EXTT9=
EXTT10=
EXTT11=
EXTT12=
EXTT13=
EXTT14=
EXTT15=
EXTT16=
EXTT17=
EXTT18=
EXTT19=
PLAYORDER=
